<svg width="169" height="59" fill="none" xmlns="http://www.w3.org/2000/svg"><mask id="a" maskUnits="userSpaceOnUse" x="23" y="49" width="10" height="10"><path fill-rule="evenodd" clip-rule="evenodd" d="M23.875 49.896h8.485v9.085h-8.485v-9.085z" fill="#fff"/></mask><g mask="url(#a)"><path fill-rule="evenodd" clip-rule="evenodd" d="M32.36 51.861l-1.526.92c-.508-.757-1.302-1.208-2.3-1.208-1.608 0-2.809 1.163-2.809 2.866 0 1.757 1.24 2.865 2.808 2.865.992 0 1.787-.431 2.32-1.2l1.45 1.025c-.801 1.139-2.123 1.853-3.756 1.853-2.746 0-4.672-1.91-4.672-4.543 0-2.634 1.926-4.543 4.672-4.543 1.646 0 3.082.745 3.813 1.965z" fill="#7F7F7F"/></g><path fill-rule="evenodd" clip-rule="evenodd" d="M38.505 58.981h-1.827V55.2l-3.53-5.79h2.148l2.305 4.06 2.305-4.06h2.082l-3.483 5.797v3.774zM45.832 57.3l1.831.006c.907 0 1.468-.246 1.468-1.163 0-.902-.561-1.14-1.468-1.14h-1.831V57.3zm0-3.973h1.673c.813 0 1.446-.198 1.446-1.128 0-.896-.644-1.107-1.452-1.107h-1.667v2.235zm4.821-1.265c0 .964-.51 1.743-1.188 2.031.75.294 1.364 1.115 1.364 2.146 0 1.833-1.117 2.742-3.083 2.742h-3.547V49.41h3.347c1.908 0 3.107.828 3.107 2.653zM54.512 58.981V49.41h6.58v1.75H56.28v2.12h4.59v1.751h-4.59v2.2h4.861v1.752h-6.63zM66.495 53.512h1.844c.916 0 1.383-.377 1.383-1.19 0-.8-.49-1.156-1.383-1.156h-1.844v2.346zm4.946-1.19c0 1.572-.957 2.638-2.569 2.823l2.582 3.836h-2.025l-2.443-3.808h-.491v3.808h-1.67V49.41h3.544c2 0 3.072 1.08 3.072 2.913zM77.572 51.114c-.989 0-1.698.409-1.698 1.11 0 .673.767.892 1.83 1.07l.501.086c1.59.264 2.825.984 2.825 2.59 0 2.034-1.723 3.011-3.629 3.011-1.35 0-2.787-.408-3.737-1.209l.918-1.485c.647.528 1.68.998 2.825.998.989 0 1.742-.404 1.742-1.118 0-.64-.646-.872-1.881-1.083l-.564-.092C75.14 54.728 74 54.02 74 52.343c0-1.93 1.646-2.934 3.534-2.934 1.248 0 2.267.29 3.389.985l-.837 1.505c-.702-.449-1.545-.785-2.514-.785zM83.977 58.981V49.41h6.579v1.75h-4.811v2.12h4.589v1.751h-4.59v2.2h4.862v1.752h-6.63z" fill="#7F7F7F"/><mask id="b" maskUnits="userSpaceOnUse" x="93" y="49" width="9" height="10"><path fill-rule="evenodd" clip-rule="evenodd" d="M93.176 49.896h8.356v9.085h-8.356v-9.085z" fill="#fff"/></mask><g mask="url(#b)"><path fill-rule="evenodd" clip-rule="evenodd" d="M101.532 51.861l-1.502.92c-.5-.757-1.283-1.208-2.266-1.208-1.584 0-2.766 1.163-2.766 2.866 0 1.757 1.22 2.865 2.766 2.865.977 0 1.76-.431 2.285-1.2l1.427 1.025c-.789 1.139-2.09 1.853-3.7 1.853-2.703 0-4.6-1.91-4.6-4.543 0-2.634 1.897-4.543 4.6-4.543 1.622 0 3.036.745 3.756 1.965z" fill="#7F7F7F"/></g><path fill-rule="evenodd" clip-rule="evenodd" d="M108.284 58.981c-2.174 0-3.682-1.323-3.682-3.922v-5.65h1.71v5.555c0 1.539.8 2.224 1.972 2.224 1.173 0 1.974-.685 1.974-2.224V49.41h1.71v5.65c0 2.599-1.509 3.922-3.684 3.922zM117.323 53.512h1.844c.916 0 1.384-.377 1.384-1.19 0-.8-.491-1.156-1.384-1.156h-1.844v2.346zm4.947-1.19c0 1.572-.958 2.638-2.57 2.823l2.582 3.836h-2.025l-2.443-3.808h-.491v3.808h-1.671V49.41h3.545c2.001 0 3.073 1.08 3.073 2.913z" fill="#7F7F7F"/><mask id="c" maskUnits="userSpaceOnUse" x="0" y="0" width="169" height="59"><path fill-rule="evenodd" clip-rule="evenodd" d="M0 58.981h168.69V.813H0v58.17z" fill="#fff"/></mask><g mask="url(#c)" fill-rule="evenodd" clip-rule="evenodd" fill="#7F7F7F"><path d="M125.227 58.981h1.473V49.41h-1.473v9.572zM134.227 51.194v7.787h-1.791v-7.787h-2.788V49.41h7.367v1.785h-2.788zM143.106 58.981h-1.827V55.2l-3.529-5.79h2.147l2.305 4.06 2.305-4.06h2.083l-3.484 5.797v3.774zM18.16 15.78l-1.998-.324c-4.259-.67-7.321-1.495-7.321-4.033 0-2.643 2.837-4.185 6.785-4.185 3.464 0 6.519 1.01 9.13 2.428l4.273-5.14C24.545 1.913 20.469.814 15.479.814 7.926.813 1.338 4.595 1.338 11.866c0 6.328 4.56 8.992 10.818 9.988l2.253.346c4.94.795 7.531 1.667 7.531 4.088 0 2.684-3.019 4.206-6.968 4.206-4.245 0-8.095-1.516-10.692-3.314L0 32.34c3.802 3.01 9.545 4.552 14.944 4.552 7.63 0 14.521-3.687 14.521-11.351 0-6.052-4.942-8.765-11.304-9.76zM50.167 18.789L65.17 1.549h-8.946l-11.83 14.316h-3.371V1.549h-7.136v35.343h7.136v-14.54h3.293l12.73 14.54H66.3L50.167 18.789zM129.264 1.549V22.49c0 5.797-3.284 8.379-8.092 8.379-4.807 0-8.084-2.582-8.084-8.379V1.55h-7.014v21.293c0 9.798 6.185 14.786 15.098 14.786 8.919 0 15.104-4.988 15.104-14.786V1.55h-7.012zM139.961 1.549v6.587h10.868v28.756h6.992V8.136h10.869V1.549h-28.729z"/><path d="M82.875 29.89c-6.1 0-11.04-4.94-11.04-11.038 0-6.091 4.94-11.038 11.04-11.038 6.093 0 11.035 4.947 11.035 11.038 0 6.099-4.942 11.038-11.035 11.038zm0-29.078c-9.972 0-18.05 8.078-18.05 18.04 0 9.963 8.078 18.04 18.05 18.04 9.965 0 18.044-8.077 18.044-18.04 0-9.962-8.079-18.04-18.044-18.04z"/></g></svg>