<svg width="205" height="274" fill="none" xmlns="http://www.w3.org/2000/svg"><g opacity=".4" stroke-width="2" stroke-linecap="round" stroke-linejoin="round"><path d="M25.599 222.116V50.034M180.584 253.53v7.77c0 6.436-5.241 11.653-11.707 11.653H36.2c-6.463 0-11.704-5.217-11.704-11.653v-7.77M180.583 51.885v170.571M24.496 19.785V12.7c0-6.436 5.242-11.654 11.707-11.654H168.88c6.463 0 11.704 5.218 11.704 11.654v8.455" stroke="#B2B2B2"/><path clip-rule="evenodd" d="M105.751 253.533a3.205 3.205 0 00-3.213-3.199 3.208 3.208 0 00-3.214 3.199 3.208 3.208 0 003.214 3.199 3.205 3.205 0 003.213-3.199z" stroke="#B2B2B2"/><path d="M47.907 237.994H1.082V191.38M1.082 82.618v-46.61h46.825M157.172 36.006h46.825v46.612M203.997 191.381v46.614h-46.825M102.54 105.011v63.978M134.674 137H70.402" stroke="#1A1A1A"/></g></svg>