<svg width="264" height="296" fill="none" xmlns="http://www.w3.org/2000/svg"><g opacity=".4" stroke-width="2" stroke-linecap="round" stroke-linejoin="round"><path clip-rule="evenodd" d="M132.265 93.291c-32.063 0-58.038 25.839-58.038 57.729 0 18.219 8.473 34.475 21.726 45.028 2.255-12.561 10.915-22.86 22.496-27.502l13.84 16.418 13.79-16.464c11.584 4.665 20.241 14.987 22.519 27.525 13.233-10.553 21.706-26.786 21.706-45.005 0-31.89-25.978-57.729-58.039-57.729z" stroke="#1A1A1A"/><path clip-rule="evenodd" d="M151.293 137.058c0-10.51-8.52-19.029-19.029-19.029-10.513 0-19.03 8.519-19.03 19.029s8.517 19.03 19.03 19.03c10.509 0 19.029-8.52 19.029-19.03z" stroke="#1A1A1A"/><path d="M39.973 222.689l75.165 42.816M21.42 104.709v86.583M243.107 104.709v86.583M115.138 31.447L39.973 74.262M224.556 74.262l-75.165-42.815M149.391 265.505l75.165-42.816" stroke="#B2B2B2"/><path clip-rule="evenodd" d="M153.194 20.98c0-11.036-9.16-19.98-20.456-19.98-11.3 0-20.457 8.944-20.457 19.98 0 11.034 9.157 19.981 20.457 19.981 11.296 0 20.456-8.947 20.456-19.982zM32.598 67.427c-9.784-5.516-22.293-2.242-27.94 7.312-5.65 9.556-2.295 21.774 7.489 27.29 9.777 5.516 22.29 2.242 27.937-7.311 5.647-9.557 2.295-21.775-7.486-27.291zM12.146 193.97c-9.784 5.516-13.136 17.735-7.489 27.288 5.647 9.557 18.16 12.831 27.94 7.315 9.78-5.519 13.135-17.735 7.485-27.291-5.647-9.554-18.156-12.828-27.937-7.312zM112.281 275.02c0 11.035 9.162 19.98 20.457 19.98 11.3 0 20.456-8.945 20.456-19.98s-9.156-19.981-20.456-19.981c-11.295 0-20.457 8.946-20.457 19.981zM231.929 228.573c9.784 5.516 22.29 2.242 27.94-7.315 5.647-9.553 2.295-21.772-7.489-27.288-9.78-5.516-22.289-2.242-27.939 7.312-5.644 9.556-2.295 21.772 7.488 27.291zM252.382 102.029c9.783-5.516 13.132-17.734 7.488-27.29-5.65-9.554-18.159-12.828-27.939-7.312-9.784 5.516-13.136 17.734-7.489 27.29 5.65 9.554 18.156 12.828 27.94 7.312z" stroke="#B2B2B2"/></g></svg>