<svg width="318" height="317" fill="none" xmlns="http://www.w3.org/2000/svg"><g stroke-width="2" stroke-linecap="round" stroke-linejoin="round"><path d="M143.42 9C67.9 16.79 9 80.62 9 158.2c0 82.84 67.16 150 150 150 77.59 0 141.41-58.9 149.2-134.42" stroke="#B2B2B2"/><path d="M174.58 9c70.41 7.26 126.36 63.22 133.62 133.62" stroke="#231F20"/><path d="M46.87 201.02C41.78 187.72 39 173.29 39 158.2c0-30.13 11.099-57.66 29.44-78.73M59.81 225.75c21.602 31.66 57.972 52.45 99.191 52.45 61 0 111.361-45.51 119-104.42M89.049 60.68a119.37 119.37 0 0154.37-21.48" stroke="#B2B2B2"/><path d="M269.061 110.299a119.12 119.12 0 018.94 32.32M174.58 39.2c29.56 3.83 55.74 18.42 74.49 39.7M174.58 69.55c37.229 6.49 66.59 35.85 73.07 73.069" stroke="#231F20"/><path d="M211.789 231.08c18.55-13.439 31.76-33.8 35.86-57.3M143.42 69.55C101.14 76.92 69 113.81 69 158.198c0 49.701 40.3 90 90 90 9.731 0 19.11-1.549 27.89-4.42" stroke="#B2B2B2"/><path d="M174.58 100.25c20.62 5.521 36.85 21.75 42.38 42.37" stroke="#231F20"/><path d="M143.42 100.25C117.84 107.101 99 130.45 99 158.2c0 33.14 26.87 60 60 60 27.75 0 51.1-18.84 57.96-44.42" stroke="#B2B2B2"/><path clip-rule="evenodd" d="M174.002 158.199c0-8.284-6.716-15-15-15-8.284 0-15 6.716-15 15 0 8.284 6.716 15 15 15 8.284 0 15-6.716 15-15z" stroke="#231F20"/><path clip-rule="evenodd" d="M316.413 158.199c0-86.706-70.477-157-157.409-157-86.933 0-157.41 70.294-157.41 157s70.477 157 157.41 157c86.932 0 157.409-70.294 157.409-157z" stroke="#231F20"/><path d="M174.002 158.199h134.197" stroke="#231F20"/><path clip-rule="evenodd" d="M209.734 238.2c0 5.522-4.477 10-10 10-5.522 0-10-4.478-10-10s4.478-10 10-10c5.523 0 10 4.478 10 10z" stroke="#B2B2B2"/><path clip-rule="evenodd" d="M204.734 238.2a5 5 0 11-10 0 5 5 0 1110 0zM72.938 77.856c-4.783-2.762-6.422-8.877-3.661-13.66 2.762-4.783 8.878-6.422 13.66-3.66 4.783 2.761 6.422 8.877 3.66 13.66-2.761 4.783-8.877 6.422-13.66 3.66z" stroke="#B2B2B2"/><path clip-rule="evenodd" d="M75.436 73.526a4.999 4.999 0 01-1.83-6.83 5 5 0 111.83 6.83zM47.47 222.503c-4.782-2.762-6.422-8.878-3.66-13.66 2.761-4.783 8.877-6.422 13.66-3.66 4.784 2.76 6.422 8.877 3.66 13.66-2.762 4.782-8.877 6.421-13.66 3.66z" stroke="#B2B2B2"/><path clip-rule="evenodd" d="M49.97 218.173a4.999 4.999 0 01-1.83-6.83 4.999 4.999 0 016.83-1.83 4.999 4.999 0 011.83 6.83 4.999 4.999 0 01-6.83 1.83z" stroke="#B2B2B2"/><path clip-rule="evenodd" d="M266.626 80.67h-14.024c-.358 0-.688.191-.867.5l-7.011 12.146a.998.998 0 000 1l7.011 12.144a1 1 0 00.867.5h14.024c.356 0 .687-.19.865-.5l7.013-12.144c.178-.31.178-.69 0-1l-7.013-12.146a1 1 0 00-.865-.5z" stroke="#1A1A1A"/></g></svg>