<svg width="352" height="264" fill="none" xmlns="http://www.w3.org/2000/svg"><path d="M327.085 189.868c-11.75 14.733-25.678 27.753-41.456 38.652-16.154 11.159-33.709 19.687-52.15 25.426-18.443 5.739-37.773 8.688-57.478 8.688-19.709 0-39.041-2.949-57.485-8.688-18.445-5.739-36-14.267-52.155-25.426-15.778-10.899-29.705-23.92-41.455-38.654M24.906 73.769c11.75-14.735 25.677-27.756 41.455-38.655 16.154-11.158 33.71-19.686 52.154-25.426C136.96 3.95 156.292 1 176.001 1c19.705 0 39.035 2.95 57.477 8.688 18.442 5.74 35.996 14.268 52.151 25.426 15.778 10.9 29.706 23.92 41.456 38.652" stroke="#B2B2B2" stroke-width="2" stroke-linecap="round" stroke-linejoin="round"/><path clip-rule="evenodd" d="M349.695 125.001a18.455 18.455 0 010 13.633c-27.489 69.002-94.895 117.771-173.694 117.771-78.812 0-146.219-48.771-173.697-117.774a18.452 18.452 0 010-13.628C29.782 56 97.19 7.23 176.001 7.23c78.799 0 146.205 48.769 173.694 117.771z" stroke="#1A1A1A" stroke-width="2" stroke-linecap="round" stroke-linejoin="round"/><path clip-rule="evenodd" d="M197.801 131.817c0-12.042-9.762-21.803-21.803-21.803-12.042 0-21.803 9.761-21.803 21.803 0 12.041 9.761 21.803 21.803 21.803 12.041 0 21.803-9.762 21.803-21.803z" stroke="#1A1A1A" stroke-width="2" stroke-linecap="round" stroke-linejoin="round"/><path clip-rule="evenodd" d="M213.376 131.817c0-41.285-16.733-74.752-37.376-74.752-20.643 0-37.377 33.467-37.377 74.752s16.734 74.752 37.377 74.752 37.376-33.467 37.376-74.752z" stroke="#B2B2B2" stroke-width="2" stroke-linecap="round" stroke-linejoin="round"/><path clip-rule="evenodd" d="M176 169.193c41.285 0 74.753-16.734 74.753-37.376 0-20.643-33.468-37.376-74.753-37.376s-74.754 16.733-74.754 37.376c0 20.642 33.469 37.376 74.754 37.376z" stroke="#B2B2B2" stroke-width="2" stroke-linecap="round" stroke-linejoin="round"/><path clip-rule="evenodd" d="M250.753 131.817c0-41.285-33.468-74.752-74.753-74.752s-74.754 33.467-74.754 74.752 33.469 74.752 74.754 74.752c41.285 0 74.753-33.467 74.753-74.752z" stroke="#1A1A1A" stroke-width="2" stroke-linecap="round" stroke-linejoin="round"/><path d="M189.879 31.817a101.093 101.093 0 0136.588 12.59 101.095 101.095 0 0129.196 25.39c8.06 10.343 14.224 22.436 17.83 35.896M162.121 231.817a101.088 101.088 0 01-36.587-12.59 101.103 101.103 0 01-29.197-25.39c-8.06-10.343-14.223-22.436-17.83-35.896M239.918 38.446l-50.039-6.629M112.082 225.188l50.039 6.629" stroke="#231F20" stroke-width="2" stroke-linecap="round" stroke-linejoin="round"/><path d="M258.922 187.728a99.777 99.777 0 009.22-16.987 99.242 99.242 0 005.827-18.771A100.457 100.457 0 00276 131.817M93.079 75.906a99.708 99.708 0 00-9.22 16.987 99.242 99.242 0 00-5.827 18.771A100.45 100.45 0 0076 131.817" stroke="#B2B2B2" stroke-width="2" stroke-linecap="round" stroke-linejoin="round"/></svg>