<svg width="273" height="273" fill="none" xmlns="http://www.w3.org/2000/svg">
  <g opacity=".4" stroke-width="2" stroke-linecap="round" stroke-linejoin="round">
    <path d="M219.429 171.769a90.161 90.161 0 01-19.29 28.608 90.153 90.153 0 01-28.608 19.287c-10.767 4.554-22.605 7.074-35.031 7.074-12.426 0-24.264-2.52-35.031-7.074a90.154 90.154 0 01-28.608-19.287 90.103 90.103 0 01-19.287-28.608M53.574 101.706a90.183 90.183 0 0119.287-28.609 90.187 90.187 0 0128.608-19.286c10.767-4.554 22.605-7.075 35.034-7.075 12.423 0 24.261 2.52 35.028 7.075a90.12 90.12 0 0128.608 19.286 90.142 90.142 0 0119.29 28.609M207.43 213.339l12-41.568M65.574 60.136l-12 41.568" stroke="#231F20"/>
    <path d="M100.672 136.951l22.884 23.787 48.768-48" stroke="#B2B2B2"/>
    <path clip-rule="evenodd" d="M271.5 136.737c0 74.559-60.441 135-135 135-74.562 0-135-60.441-135-135s60.438-135 135-135c74.559 0 135 60.441 135 135z" stroke="#B2B2B2"/>
  </g>
</svg>
