<svg width="227" height="226" fill="none" xmlns="http://www.w3.org/2000/svg">
  <g opacity=".401" stroke-width="2" stroke-linecap="round" stroke-linejoin="round">
    <path d="M24.496 134.743v44.289m73.674 6.813l-57.916-57.916m140.531 73.673h-44.289m-6.812-162.251L187.6 97.267M47.066 23.595h44.29m111.148 111.148v44.289" stroke="#B2B2B2"/>
    <path d="M46.585 23.338c0 12.324-9.996 22.315-22.33 22.315-12.331 0-22.33-9.991-22.33-22.315 0-12.323 9.999-22.315 22.33-22.315 12.334 0 22.33 9.992 22.33 22.315zm89.316 0c0 12.324-9.995 22.315-22.329 22.315-12.332 0-22.33-9.991-22.33-22.315 0-12.323 9.998-22.315 22.33-22.315 12.334 0 22.329 9.992 22.329 22.315zm89.316 0c0 12.324-9.995 22.315-22.329 22.315-12.331 0-22.329-9.991-22.329-22.315 0-12.323 9.998-22.315 22.329-22.315 12.334 0 22.329 9.992 22.329 22.315zm-178.632 89.26c0 12.323-9.996 22.315-22.33 22.315-12.331 0-22.33-9.992-22.33-22.315s9.999-22.315 22.33-22.315c12.334 0 22.33 9.992 22.33 22.315zm89.316 0c0 12.323-9.995 22.315-22.329 22.315-12.332 0-22.33-9.992-22.33-22.315s9.998-22.315 22.33-22.315c12.334 0 22.329 9.992 22.329 22.315zm89.316 0c0 12.323-9.995 22.315-22.329 22.315-12.331 0-22.329-9.992-22.329-22.315s9.998-22.315 22.329-22.315c12.334 0 22.329 9.992 22.329 22.315zM46.585 201.857c0 12.324-9.996 22.315-22.33 22.315-12.331 0-22.33-9.991-22.33-22.315 0-12.323 9.999-22.315 22.33-22.315 12.334 0 22.33 9.992 22.33 22.315zm89.316 0c0 12.324-9.995 22.315-22.329 22.315-12.332 0-22.33-9.991-22.33-22.315 0-12.323 9.998-22.315 22.33-22.315 12.334 0 22.329 9.992 22.329 22.315zm89.316 0c0 12.324-9.995 22.315-22.329 22.315-12.331 0-22.329-9.991-22.329-22.315 0-12.323 9.998-22.315 22.329-22.315 12.334 0 22.329 9.992 22.329 22.315z" clip-rule="evenodd" stroke="#1A1A1A"/>
  </g>
</svg>
