<svg width="32" height="23" fill="none" xmlns="http://www.w3.org/2000/svg">
  <path fill-rule="evenodd" clip-rule="evenodd" d="M12.678 16.248V6.752l8.33 4.748-8.33 4.748zm18.53-12.485A4.009 4.009 0 0028.392.922C25.905.25 15.938.25 15.938.25S5.97.25 3.483.922A4.009 4.009 0 00.666 3.763C0 6.27 0 11.5 0 11.5s0 5.23.666 7.737a4.01 4.01 0 002.818 2.841c2.486.672 12.454.672 12.454.672s9.967 0 12.453-.672a4.01 4.01 0 002.818-2.841c.666-2.507.666-7.737.666-7.737s0-5.23-.666-7.737z" fill="#7F7F7F"/>
</svg>
